<svg xmlns="http://www.w3.org/2000/svg" xmlns:xlink="http://www.w3.org/1999/xlink" width="500" zoomAndPan="magnify" viewBox="0 0 375 374.999991" height="500" preserveAspectRatio="xMidYMid meet" version="1.0"><defs><g/><clipPath id="id1"><path d="M 107.0625 84 L 261 84 L 261 264 L 107.0625 264 Z M 107.0625 84 " clip-rule="nonzero"/></clipPath></defs><path fill="#004aad" d="M 213.519531 204.566406 C 213.5 205.289062 213.488281 205.984375 213.480469 206.699219 C 208.417969 206.585938 203.351562 206.515625 198.28125 206.398438 L 198.320312 206.304688 C 198.449219 206 198.582031 205.6875 198.722656 205.375 C 198.835938 205.128906 198.9375 204.882812 199.070312 204.652344 C 199.332031 204.160156 199.742188 203.8125 200.261719 203.609375 C 200.589844 203.476562 200.921875 203.398438 201.269531 203.339844 C 201.878906 203.246094 202.503906 203.21875 203.128906 203.230469 C 203.160156 203.234375 203.1875 203.238281 203.21875 203.238281 C 203.628906 204.519531 204.910156 205.21875 206.148438 204.96875 C 207.3125 204.726562 208.15625 203.730469 208.1875 202.542969 C 208.214844 201.359375 207.410156 200.3125 206.242188 200.035156 C 205.671875 199.890625 205.109375 199.949219 204.578125 200.203125 C 203.902344 200.511719 203.460938 201.039062 203.222656 201.75 C 203.179688 201.753906 203.140625 201.753906 203.105469 201.746094 C 202.4375 201.746094 201.777344 201.765625 201.121094 201.847656 C 200.558594 201.921875 200.019531 202.035156 199.496094 202.257812 C 198.984375 202.46875 198.542969 202.777344 198.203125 203.222656 C 197.941406 203.554688 197.753906 203.914062 197.582031 204.296875 C 197.390625 204.726562 197.210938 205.148438 197.03125 205.574219 C 196.90625 205.84375 196.773438 206.117188 196.628906 206.367188 C 195.285156 206.34375 193.949219 206.324219 192.613281 206.292969 C 192.378906 205.683594 191.996094 205.214844 191.417969 204.910156 C 190.839844 204.597656 190.230469 204.523438 189.59375 204.675781 C 188.464844 204.945312 187.667969 205.933594 187.652344 207.09375 C 187.625 208.253906 188.371094 209.277344 189.492188 209.597656 C 190.058594 209.757812 190.609375 209.738281 191.144531 209.523438 C 191.902344 209.210938 192.402344 208.648438 192.652344 207.863281 C 192.699219 207.871094 192.742188 207.871094 192.769531 207.871094 C 194.851562 207.914062 196.929688 207.945312 198.996094 207.980469 C 199.082031 207.988281 199.167969 208.011719 199.242188 208.050781 C 199.410156 208.152344 199.542969 208.28125 199.636719 208.441406 C 199.78125 208.667969 199.914062 208.90625 200.042969 209.140625 C 200.277344 209.589844 200.496094 210.042969 200.769531 210.46875 C 201.207031 211.121094 201.753906 211.648438 202.445312 212.042969 C 203.125 212.425781 203.863281 212.644531 204.640625 212.78125 C 205.144531 212.875 205.660156 212.917969 206.167969 212.941406 C 206.199219 212.945312 206.234375 212.949219 206.273438 212.957031 C 206.269531 213.394531 206.253906 213.832031 206.253906 214.269531 C 206.53125 214.292969 210.460938 214.351562 210.558594 214.320312 C 210.582031 212.902344 210.609375 211.480469 210.628906 210.050781 C 209.195312 210.03125 207.761719 210 206.316406 209.980469 C 206.304688 210.476562 206.300781 210.964844 206.296875 211.453125 C 206.253906 211.457031 206.234375 211.460938 206.214844 211.457031 C 205.519531 211.441406 204.835938 211.34375 204.171875 211.144531 C 203.128906 210.824219 202.3125 210.214844 201.773438 209.253906 C 201.566406 208.867188 201.359375 208.472656 201.164062 208.082031 C 201.152344 208.0625 201.160156 208.046875 201.15625 208.027344 C 205.230469 208.105469 209.289062 208.183594 213.351562 208.257812 C 213.382812 208.261719 213.410156 208.265625 213.449219 208.269531 C 213.449219 208.269531 213.460938 208.273438 213.453125 208.285156 C 213.453125 208.285156 213.460938 208.289062 213.476562 208.300781 C 213.472656 208.429688 213.476562 208.570312 213.464844 208.707031 C 213.464844 208.847656 213.464844 208.988281 213.460938 209.125 L 213.460938 209.546875 C 213.453125 209.683594 213.457031 209.828125 213.457031 209.964844 C 213.457031 210.105469 213.441406 210.242188 213.457031 210.386719 C 215.164062 209.441406 216.847656 208.484375 218.558594 207.53125 C 216.867188 206.542969 215.195312 205.558594 213.519531 204.566406 Z M 234.226562 200.171875 L 229.59375 200.097656 L 229.507812 204.726562 L 234.148438 204.800781 Z M 234.050781 210.363281 L 229.421875 210.285156 L 229.34375 214.914062 L 233.976562 214.988281 Z M 234.050781 210.363281 L 229.421875 210.285156 L 229.34375 214.914062 L 233.976562 214.988281 Z M 234.226562 200.171875 L 229.59375 200.097656 L 229.507812 204.726562 L 234.148438 204.800781 Z M 234.226562 200.171875 L 229.59375 200.097656 L 229.507812 204.726562 L 234.148438 204.800781 Z M 234.050781 210.363281 L 229.421875 210.285156 L 229.34375 214.914062 L 233.976562 214.988281 Z M 234.050781 210.363281 L 229.421875 210.285156 L 229.34375 214.914062 L 233.976562 214.988281 Z M 234.226562 200.171875 L 229.59375 200.097656 L 229.507812 204.726562 L 234.148438 204.800781 Z M 234.050781 210.363281 L 229.421875 210.285156 L 229.34375 214.914062 L 233.976562 214.988281 Z M 234.226562 200.171875 L 229.59375 200.097656 L 229.507812 204.726562 L 234.148438 204.800781 Z M 234.226562 200.171875 L 229.59375 200.097656 L 229.507812 204.726562 L 234.148438 204.800781 Z M 234.050781 210.363281 L 229.421875 210.285156 L 229.34375 214.914062 L 233.976562 214.988281 Z M 234.050781 210.363281 L 229.421875 210.285156 L 229.34375 214.914062 L 233.976562 214.988281 Z M 234.226562 200.171875 L 229.59375 200.097656 L 229.507812 204.726562 L 234.148438 204.800781 Z M 234.226562 200.171875 L 229.59375 200.097656 L 229.507812 204.726562 L 234.148438 204.800781 Z M 234.050781 210.363281 L 229.421875 210.285156 L 229.34375 214.914062 L 233.976562 214.988281 Z M 234.050781 210.363281 L 229.421875 210.285156 L 229.34375 214.914062 L 233.976562 214.988281 Z M 234.226562 200.171875 L 229.59375 200.097656 L 229.507812 204.726562 L 234.148438 204.800781 Z M 234.226562 200.171875 " fill-opacity="1" fill-rule="nonzero"/><path fill="#004aad" d="M 190.296875 140.136719 C 190.296875 140.585938 190.210938 141.011719 190.046875 141.402344 C 189.988281 141.542969 189.921875 141.667969 189.84375 141.792969 C 189.296875 142.722656 188.277344 143.355469 187.109375 143.355469 L 183.75 143.378906 C 182.589844 143.378906 181.574219 142.773438 181.007812 141.859375 L 181 141.847656 C 180.707031 141.367188 180.53125 140.800781 180.523438 140.195312 C 180.523438 139.746094 180.617188 139.320312 180.785156 138.929688 C 180.859375 138.75 180.949219 138.582031 181.058594 138.425781 L 181.066406 138.425781 C 181.617188 137.558594 182.601562 136.976562 183.710938 136.976562 L 187.078125 136.953125 C 188.1875 136.953125 189.171875 137.5 189.746094 138.367188 C 190.09375 138.875 190.296875 139.480469 190.296875 140.136719 Z M 190.296875 140.136719 " fill-opacity="1" fill-rule="nonzero"/><g clip-path="url(#id1)"><path fill="#004aad" d="M 196.257812 142.621094 C 196.082031 145.316406 195.464844 147.867188 194.464844 150.238281 C 191.238281 157.894531 184.085938 163.507812 175.503906 164.546875 L 175.355469 141.882812 L 179.824219 141.859375 C 179.589844 141.351562 179.449219 140.792969 179.449219 140.203125 C 179.449219 139.664062 179.558594 139.132812 179.757812 138.65625 C 179.789062 138.582031 179.824219 138.507812 179.863281 138.433594 L 175.335938 138.457031 L 175.203125 117.625 C 184.125 118.578125 191.570312 124.484375 194.707031 132.539062 C 209.839844 131.90625 240.9375 133.636719 256.636719 156.488281 C 256.636719 156.488281 260.441406 136.902344 253.988281 118.4375 C 249.066406 104.304688 238.152344 90.820312 214.949219 87.246094 C 161.429688 79.007812 123.320312 89.738281 110.996094 126.179688 C 107.621094 136.1875 107.035156 146.539062 109.21875 156.15625 L 109.210938 156.183594 C 114.457031 179.09375 134.550781 201.472656 170.683594 201.722656 L 171.5 197.425781 L 171.550781 197.160156 L 177.730469 197.257812 L 183.53125 191.207031 L 223.203125 191.863281 L 222.679688 222.933594 L 183.015625 222.273438 L 177.421875 216.03125 L 171.226562 215.921875 L 170.769531 209.613281 C 155.320312 210.554688 128.753906 208.558594 112.972656 187.066406 C 107.425781 211.507812 114.773438 235.519531 129.636719 247.820312 C 129.636719 247.820312 129.636719 247.820312 129.648438 247.832031 C 129.648438 247.832031 129.648438 247.832031 129.65625 247.839844 C 140.152344 256.511719 153.976562 261.765625 168.625 262.992188 C 202.152344 265.839844 245.957031 261.464844 258.039062 217.828125 C 258.039062 217.828125 258.046875 217.828125 258.046875 217.816406 C 258.714844 215.40625 259.28125 212.886719 259.753906 210.226562 C 268.3125 161.59375 228.230469 143.335938 196.257812 142.621094 Z M 159.855469 164.796875 C 153.132812 164.828125 147.050781 162.078125 142.707031 157.621094 C 138.601562 153.40625 136.058594 147.660156 136.027344 141.324219 C 136 138.023438 136.652344 134.875 137.859375 132.023438 C 141.421875 123.578125 149.785156 117.625 159.5625 117.558594 L 171.761719 117.484375 L 171.894531 138.484375 L 171.917969 141.90625 L 172.0625 164.710938 Z M 225.414062 196.070312 L 238.535156 196.296875 L 238.152344 219.015625 L 225.03125 218.800781 Z M 225.414062 196.070312 " fill-opacity="1" fill-rule="nonzero"/></g><g fill="#004aad" fill-opacity="1"><g transform="translate(118.97902, 302.872901)"><g><path d="M 9.921875 -4.28125 C 9.921875 -4.914062 9.695312 -5.398438 9.25 -5.734375 C 8.800781 -6.078125 7.992188 -6.4375 6.828125 -6.8125 C 5.660156 -7.195312 4.738281 -7.570312 4.0625 -7.9375 C 2.207031 -8.9375 1.28125 -10.285156 1.28125 -11.984375 C 1.28125 -12.859375 1.523438 -13.640625 2.015625 -14.328125 C 2.515625 -15.023438 3.226562 -15.566406 4.15625 -15.953125 C 5.09375 -16.347656 6.140625 -16.546875 7.296875 -16.546875 C 8.460938 -16.546875 9.5 -16.332031 10.40625 -15.90625 C 11.320312 -15.488281 12.03125 -14.894531 12.53125 -14.125 C 13.039062 -13.351562 13.296875 -12.476562 13.296875 -11.5 L 9.9375 -11.5 C 9.9375 -12.25 9.695312 -12.828125 9.21875 -13.234375 C 8.75 -13.648438 8.085938 -13.859375 7.234375 -13.859375 C 6.410156 -13.859375 5.769531 -13.6875 5.3125 -13.34375 C 4.863281 -13 4.640625 -12.539062 4.640625 -11.96875 C 4.640625 -11.4375 4.90625 -10.988281 5.4375 -10.625 C 5.976562 -10.269531 6.765625 -9.9375 7.796875 -9.625 C 9.710938 -9.050781 11.109375 -8.335938 11.984375 -7.484375 C 12.859375 -6.628906 13.296875 -5.566406 13.296875 -4.296875 C 13.296875 -2.890625 12.757812 -1.785156 11.6875 -0.984375 C 10.625 -0.179688 9.1875 0.21875 7.375 0.21875 C 6.113281 0.21875 4.96875 -0.0078125 3.9375 -0.46875 C 2.90625 -0.925781 2.117188 -1.550781 1.578125 -2.34375 C 1.035156 -3.144531 0.765625 -4.078125 0.765625 -5.140625 L 4.140625 -5.140625 C 4.140625 -3.335938 5.21875 -2.4375 7.375 -2.4375 C 8.175781 -2.4375 8.800781 -2.597656 9.25 -2.921875 C 9.695312 -3.242188 9.921875 -3.695312 9.921875 -4.28125 Z M 9.921875 -4.28125 "/></g></g></g><g fill="#004aad" fill-opacity="1"><g transform="translate(137.398989, 302.872901)"><g><path d="M 5.84375 -16.3125 L 10.046875 -4.484375 L 14.21875 -16.3125 L 18.625 -16.3125 L 18.625 0 L 15.25 0 L 15.25 -4.453125 L 15.59375 -12.15625 L 11.1875 0 L 8.875 0 L 4.484375 -12.15625 L 4.8125 -4.453125 L 4.8125 0 L 1.453125 0 L 1.453125 -16.3125 Z M 5.84375 -16.3125 "/></g></g></g><g fill="#004aad" fill-opacity="1"><g transform="translate(161.81211, 302.872901)"><g><path d="M 5.03125 0 L 1.671875 0 L 1.671875 -16.3125 L 5.03125 -16.3125 Z M 5.03125 0 "/></g></g></g><g fill="#004aad" fill-opacity="1"><g transform="translate(172.816243, 302.872901)"><g><path d="M 13.734375 -13.59375 L 8.734375 -13.59375 L 8.734375 0 L 5.375 0 L 5.375 -13.59375 L 0.453125 -13.59375 L 0.453125 -16.3125 L 13.734375 -16.3125 Z M 13.734375 -13.59375 "/></g></g></g><g fill="#004aad" fill-opacity="1"><g transform="translate(191.32583, 302.872901)"><g><path d="M 14.734375 0 L 11.375 0 L 11.375 -7 L 4.8125 -7 L 4.8125 0 L 1.453125 0 L 1.453125 -16.3125 L 4.8125 -16.3125 L 4.8125 -9.703125 L 11.375 -9.703125 L 11.375 -16.3125 L 14.734375 -16.3125 Z M 14.734375 0 "/></g></g></g><g fill="#004aad" fill-opacity="1"><g transform="translate(211.851807, 302.872901)"><g/></g></g><g fill="#004aad" fill-opacity="1"><g transform="translate(221.881344, 302.872901)"><g><path d="M 4.8125 -5.75 L 4.8125 0 L 1.453125 0 L 1.453125 -16.3125 L 7.828125 -16.3125 C 9.046875 -16.3125 10.117188 -16.085938 11.046875 -15.640625 C 11.984375 -15.191406 12.703125 -14.554688 13.203125 -13.734375 C 13.703125 -12.910156 13.953125 -11.972656 13.953125 -10.921875 C 13.953125 -9.316406 13.40625 -8.050781 12.3125 -7.125 C 11.21875 -6.207031 9.703125 -5.75 7.765625 -5.75 Z M 4.8125 -8.46875 L 7.828125 -8.46875 C 8.710938 -8.46875 9.390625 -8.675781 9.859375 -9.09375 C 10.328125 -9.519531 10.5625 -10.117188 10.5625 -10.890625 C 10.5625 -11.691406 10.320312 -12.335938 9.84375 -12.828125 C 9.375 -13.328125 8.726562 -13.582031 7.90625 -13.59375 L 4.8125 -13.59375 Z M 4.8125 -8.46875 "/></g></g></g><g fill="#004aad" fill-opacity="1"><g transform="translate(240.995847, 302.872901)"><g><path d="M 14.265625 -5.4375 C 14.140625 -3.675781 13.488281 -2.289062 12.3125 -1.28125 C 11.144531 -0.28125 9.609375 0.21875 7.703125 0.21875 C 5.609375 0.21875 3.960938 -0.484375 2.765625 -1.890625 C 1.566406 -3.296875 0.96875 -5.226562 0.96875 -7.6875 L 0.96875 -8.6875 C 0.96875 -10.257812 1.242188 -11.640625 1.796875 -12.828125 C 2.347656 -14.023438 3.132812 -14.941406 4.15625 -15.578125 C 5.1875 -16.222656 6.382812 -16.546875 7.75 -16.546875 C 9.625 -16.546875 11.132812 -16.039062 12.28125 -15.03125 C 13.4375 -14.019531 14.109375 -12.601562 14.296875 -10.78125 L 10.921875 -10.78125 C 10.835938 -11.832031 10.546875 -12.59375 10.046875 -13.0625 C 9.546875 -13.539062 8.78125 -13.78125 7.75 -13.78125 C 6.625 -13.78125 5.78125 -13.378906 5.21875 -12.578125 C 4.664062 -11.773438 4.382812 -10.53125 4.375 -8.84375 L 4.375 -7.609375 C 4.375 -5.847656 4.640625 -4.554688 5.171875 -3.734375 C 5.703125 -2.921875 6.546875 -2.515625 7.703125 -2.515625 C 8.734375 -2.515625 9.503906 -2.75 10.015625 -3.21875 C 10.535156 -3.695312 10.832031 -4.4375 10.90625 -5.4375 Z M 14.265625 -5.4375 "/></g></g></g></svg>